HIERARCHY
ROOT root     
{
	OFFSET 0.0000 0.0000 0.0000
	CHANNELS 6 Xposition Yposition Zposition Zrotation Yrotation Xrotation
	JOINT pelvis   
	{
		OFFSET 0.0000 0.0000 0.0000
		CHANNELS 3 Zrotation Yrotation Xrotation
		JOINT thorax   
		{
			OFFSET 0.0000 23.0750 -5.0000
			CHANNELS 3 Zrotation Yrotation Xrotation
			JOINT rclavicle
			{
				OFFSET 0.0000 28.0009 0.0000
				CHANNELS 3 Zrotation Yrotation Xrotation
				JOINT rhumerus 
				{
					OFFSET -18.5725 5.5939 0.0000
					CHANNELS 3 Zrotation Yrotation Xrotation
					JOINT rradius  
					{
						OFFSET -24.8459 0.0000 0.0000
						CHANNELS 3 Zrotation Yrotation Xrotation
						JOINT rhand    
						{
							OFFSET -24.5477 0.0000 0.0000
							CHANNELS 3 Zrotation Yrotation Xrotation
							End Site
							{
								OFFSET -8.1826 0.0000 0.0000
							}
						}
					}
				}
			}
			JOINT lclavicle
			{
				OFFSET 0.0000 28.0009 0.0000
				CHANNELS 3 Zrotation Yrotation Xrotation
				JOINT lhumerus 
				{
					OFFSET 18.5725 5.5939 0.0000
					CHANNELS 3 Zrotation Yrotation Xrotation
					JOINT lradius  
					{
						OFFSET 24.8459 0.0000 0.0000
						CHANNELS 3 Zrotation Yrotation Xrotation
						JOINT lhand    
						{
							OFFSET 24.5477 0.0000 0.0000
							CHANNELS 3 Zrotation Yrotation Xrotation
							End Site
							{
								OFFSET 8.1826 0.0000 0.0000
							}
						}
					}
				}
			}
			JOINT head     
			{
				OFFSET 0.0000 35.2030 0.0000
				CHANNELS 3 Zrotation Yrotation Xrotation
				End Site
				{
					OFFSET 0.0000 11.7343 0.0000
				}
			}
		}
		JOINT rfemur   
		{
			OFFSET -8.2817 0.0000 0.0000
			CHANNELS 3 Zrotation Yrotation Xrotation
			JOINT rtibia   
			{
				OFFSET 0.0000 -43.3627 0.0000
				CHANNELS 3 Zrotation Yrotation Xrotation
				JOINT rfoot    
				{
					OFFSET 0.0000 -38.2947 0.0000
					CHANNELS 3 Zrotation Yrotation Xrotation
					JOINT rtoes    
					{
						OFFSET 0.0000 0.0000 16.6054
						CHANNELS 3 Zrotation Yrotation Xrotation
						End Site
						{
							OFFSET 0.0000 0.0000 5.5351
						}
					}
				}
			}
		}
		JOINT lfemur   
		{
			OFFSET 8.2817 0.0000 0.0000
			CHANNELS 3 Zrotation Yrotation Xrotation
			JOINT ltibia   
			{
				OFFSET 0.0000 -43.3627 0.0000
				CHANNELS 3 Zrotation Yrotation Xrotation
				JOINT lfoot    
				{
					OFFSET 0.0000 -38.2947 0.0000
					CHANNELS 3 Zrotation Yrotation Xrotation
					JOINT ltoes    
					{
						OFFSET 0.0000 0.0000 16.6054
						CHANNELS 3 Zrotation Yrotation Xrotation
						End Site
						{
							OFFSET 0.0000 0.0000 5.5351
						}
					}
				}
			}
		}
	}
}
MOTION
Frames: 19
Frame Time: .0333333
151.84 81.978 14.618 174.719 -85.486 -147.806 0 -0 0 -12.5499 3.45938 -9.82321 24.904 -7.67378 4.07617e-05 32.296 20.2189 13.2332 -180 87.2637 -180 -6.01222 8.90133 -0.468404 -21.2851 19.3194 5.92514e-05 -31.3708 8.65398 -39.2283 0 -43.5729 0 15.1462 0.820294 0.109101 8.55109 0.179046 -18.663 -2.14366 -7.17548 -2.18384 -0 -0 25.6882 3.55267e-05 7.61831 30.6847 3.90485 2.63767e-05 -89.6421 -2.62767 -0.254995 -55.0426 -0 -0 38.7067 5.60067e-07 7.2834 0.675907 0.0864005 2.65577e-07 -16.6018 
150.64 81.783 14.717 172.694 -85.4239 -145.668 0 -0 0 -13.1249 3.23462 -10.2433 25.1415 -7.74933 -2.7119e-05 32.1076 19.9531 13.7757 -180 87.0625 -180 -5.72232 9.12478 -0.456989 -21.3684 19.3398 0.000108062 -31.3318 8.63728 -38.9215 0 -42.8696 0 15.3332 0.744104 0.100204 9.69576 -0.055499 -18.4244 -2.58877 -7.95191 -2.81345 -0 -0 27.6759 -3.58044e-05 8.09912 31.8404 4.29345 2.2445e-05 -87.8439 -3.19457 0.0379495 -55.1044 -0 -0 40.2844 -1.89244e-08 7.03401 -0.205406 -0.0253001 -1.77129e-07 -16.3988 
149.46 81.615 14.829 170.232 -85.3645 -143.11 0 -0 0 -13.6844 2.97289 -10.6232 25.3574 -7.82482 -7.26939e-05 31.9686 19.6908 14.3222 -180 86.9397 -180 -5.36948 9.32451 -0.438206 -21.492 19.3309 7.17689e-06 -31.3205 8.51501 -38.6075 0 -42.0983 0 15.6094 0.660399 0.090499 10.776 -0.309633 -18.1698 -3.0455 -8.70929 -3.52443 -0 -0 29.7693 -0.000104214 8.37101 32.9819 4.58004 -2.03858e-06 -85.4909 -3.78062 0.283123 -55.0457 -0 -0 41.6719 1.09073e-06 6.82412 -1.2869 -0.153996 1.41979e-07 -16.4209 
148.28 81.478 14.95 167.506 -85.3115 -140.312 0 -0 0 -14.203 2.68835 -10.9515 25.5443 -7.90233 6.79572e-05 31.8757 19.4339 14.8645 -180 86.9096 -180 -4.95383 9.48874 -0.411395 -21.666 19.2843 0.000120726 -31.345 8.29964 -38.2885 0 -41.2857 0 15.9643 0.586099 0.0821972 11.7792 -0.579049 -17.8991 -3.49162 -9.41884 -4.28479 -0 -0 31.9161 -8.37374e-05 8.3638 34.0667 4.70812 7.49429e-06 -82.6747 -4.35618 0.470712 -54.842 -0 -0 42.837 -3.44128e-06 6.6576 -2.51448 -0.293406 -8.50269e-07 -16.6632 
147.11 81.375 15.083 164.541 -85.2646 -137.31 0 -0 0 -14.6771 2.39318 -11.2175 25.7068 -7.98347 1.24182e-05 31.828 19.1791 15.3931 -180 86.9724 -180 -4.479 9.60903 -0.376702 -21.8799 19.2133 9.5177e-05 -31.4311 7.97311 -37.9724 0 -40.4405 0 16.3788 0.526301 0.0757008 12.7042 -0.859753 -17.609 -3.93062 -10.0755 -5.06783 -0 -0 34.0792 -6.96333e-05 8.0374 35.028 4.6337 -3.02797e-05 -79.5257 -4.90797 0.583246 -54.4673 -0 -0 43.7577 -2.91616e-06 6.54611 -3.82219 -0.438301 8.11755e-07 -17.0896 
145.94 81.306 15.226 161.498 -85.2178 -134.275 0 -0 0 -15.0942 2.09924 -11.4176 25.845 -8.06876 3.17118e-05 31.8151 18.9236 15.8963 -180 87.1334 -180 -3.9541 9.68106 -0.33501 -22.1342 19.1185 0.000128031 -31.5894 7.54309 -37.6557 0 -39.5855 0 16.8278 0.491397 0.072698 13.5503 -1.14714 -17.2986 -4.35244 -10.6639 -5.84868 -0 -0 36.2172 -4.82867e-05 7.35725 35.7991 4.3192 7.29994e-05 -76.2179 -5.41635 0.61405 -53.9149 -0 -0 44.4238 -5.50349e-06 6.49441 -5.1431 -0.584702 1.77181e-07 -17.6402 
144.77 81.273 15.375 158.607 -85.1792 -131.435 0 -0 0 -15.4249 1.81834 -11.557 25.9598 -8.1583 -5.28135e-05 31.8276 18.6602 16.3648 -180 87.4014 -180 -3.39413 9.70513 -0.288205 -22.4317 19.0018 1.63975e-05 -31.8259 7.02313 -37.3274 0 -38.7474 0 17.287 0.491697 0.0746996 14.3129 -1.43775 -16.9638 -4.72984 -11.1589 -6.61154 -0 -0 38.2929 -5.79377e-05 6.30246 36.3166 3.7424 4.05494e-05 -72.9301 -5.85441 0.568903 -53.1941 -0 -0 44.8497 2.02188e-06 6.49991 -6.41527 -0.729397 1.67877e-06 -18.2341 
143.59 81.274 15.529 155.915 -85.143 -128.84 0 -0 0 -15.6745 1.55679 -11.6424 26.0553 -8.25201 -2.12194e-05 31.8578 18.3828 16.7866 -180 87.7523 -180 -2.8168 9.68483 -0.238701 -22.7592 18.8717 -4.89292e-05 -32.1525 6.417 -36.976 0 -37.9447 0 17.7311 0.527996 0.0824025 15.0031 -1.72834 -16.6053 -5.06851 -11.5583 -7.34887 -0 -0 40.2844 -2.5257e-06 4.90213 36.5176 2.92167 4.9633e-05 -69.8071 -6.21872 0.442572 -52.3105 -0 -0 45.0425 2.41912e-06 6.57065 -7.58324 -0.8709 6.35536e-06 -18.7813 
142.41 81.31 15.685 153.53 -85.1133 -126.588 0 -0 0 -15.8325 1.31956 -11.6885 26.1371 -8.34845 -2.5943e-06 31.8951 18.0826 17.1512 -180 88.2053 -180 -2.24427 9.62782 -0.189005 -23.1126 18.7294 -5.02402e-05 -32.5751 5.73875 -36.5802 0 -37.2002 0 18.1359 0.603497 0.096299 15.6273 -2.01715 -16.2231 -5.35421 -11.8486 -8.06301 -0 -0 42.1758 1.85066e-05 3.20312 36.3562 1.90006 -7.62355e-06 -66.9402 -6.49976 0.243645 -51.2905 -0 -0 45.0303 -6.77872e-07 6.70464 -8.60765 -1.00798 -1.0963e-06 -19.2007 
141.24 81.379 15.841 151.53 -85.1081 -124.745 0 -0 0 -15.8959 1.10803 -11.7113 26.21 -8.44662 2.91082e-05 31.9359 17.7514 17.449 -180 88.7439 -180 -1.69907 9.54431 -0.141897 -23.4808 18.5795 0.000124641 -33.0936 5.00511 -36.115 0 -36.5307 0 18.4856 0.717799 0.1168 16.1959 -2.30218 -15.8184 -5.57966 -12.0241 -8.76231 -0 -0 43.9549 2.93964e-06 1.28252 35.8025 0.75039 -1.72678e-06 -64.354 -6.69567 -0.0183763 -50.1597 -0 -0 44.8374 -1.8924e-06 6.89826 -9.46382 -1.1396 -5.76854e-06 -19.4382 
140.06 81.481 15.993 149.959 -85.1174 -123.345 0 -0 0 -15.8666 0.921584 -11.7277 26.2781 -8.54568 -3.1881e-05 31.9725 17.3793 17.6699 -180 89.3334 -180 -1.20267 9.44495 -0.0993969 -23.8552 18.425 -8.07795e-06 -33.7103 4.22808 -35.5528 0 -35.9569 0 18.7663 0.867902 0.143405 16.719 -2.583 -15.3929 -5.74039 -12.0827 -9.45987 -0 -0 45.6175 1.02545e-06 -0.763305 34.8535 -0.436205 2.87625e-06 -62.0157 -6.81128 -0.329591 -48.9501 -0 -0 44.4879 7.54884e-06 7.14288 -10.145 -1.26452 -1.42284e-05 -19.4731 
138.89 81.613 16.14 148.834 -85.1557 -122.39 0 -0 0 -15.7465 0.75669 -11.7544 26.3444 -8.64499 9.20209e-05 32.0066 16.9618 17.8075 -179.999 90 -179.999 -0.773598 9.33996 -0.0632 -24.2249 18.2668 -2.46922e-05 -34.4224 3.42664 -34.8643 0 -35.4911 0 18.969 1.0487 0.175204 17.2094 -2.85851 -14.9513 -5.8341 -12.0266 -10.1695 -0 -0 47.1596 -9.91003e-06 -2.83162 33.5277 -1.56487 5.30479e-06 -59.8522 -6.85475 -0.672294 -47.6862 -0 -0 44.0042 5.24837e-06 7.42547 -10.6588 -1.38086 9.73318e-06 -19.326 
137.72 81.773 16.28 148.174 -85.2179 -121.887 0 -0 0 -15.5392 0.609289 -11.802 26.4123 -8.74425 -6.80567e-06 32.037 16.4928 17.8544 -1.72529e-05 89.3358 -1.70533e-05 -0.424194 9.23712 -0.0342993 -24.5823 18.1059 -1.62563e-05 -35.2217 2.61452 -34.0204 0 -35.1435 0 19.0897 1.25416 0.210906 17.6743 -3.12881 -14.4937 -5.85781 -11.8611 -10.9061 -0 -0 48.5783 -3.42216e-05 -4.8267 31.8744 -2.55311 1.62307e-05 -57.7846 -6.83459 -1.0256 -46.3928 -0 -0 43.4067 -1.67046e-06 7.72639 -11.0253 -1.48625 5.05143e-06 -19.0458 
136.57 81.96 16.411 147.898 -85.3156 -121.746 0 -0 0 -15.2612 0.473973 -11.8737 26.485 -8.84486 4.21706e-05 32.0661 15.9725 17.8051 -9.76627e-06 88.615 -1.00049e-05 -0.161798 9.1415 -0.0128998 -24.9154 17.9428 -6.50079e-05 -36.1073 1.80159 -33.0075 0 -34.9211 0 19.1273 1.47185 0.248006 18.1232 -3.39265 -14.0282 -5.82461 -11.6006 -11.6734 -0 -0 49.8709 -4.51219e-05 -6.66251 29.9608 -3.33863 -1.10145e-05 -55.7383 -6.76965 -1.37166 -45.0809 -0 -0 42.7036 4.13978e-06 8.02805 -11.271 -1.5791 5.48344e-06 -18.6963 
135.43 82.171 16.53 148.113 -85.4333 -122.072 0 -0 0 -14.9009 0.344677 -11.9827 26.5575 -8.94634 1.19135e-06 32.1015 15.4019 17.6591 -0 87.8795 -0 0.0145994 9.05471 0.00119995 -25.2351 17.7686 -6.20917e-07 -37.0512 1.01895 -31.7959 2.20219e-07 -34.8406 -7.01842e-07 19.0855 1.70522 0.286698 18.5539 -3.64832 -13.5556 -5.72305 -11.2532 -12.487 -0 -0 51.0363 4.72753e-05 -8.28407 27.8721 -3.89406 2.37147e-05 -53.5849 -6.6599 -1.68457 -43.7693 -0 -0 41.9071 -4.33348e-07 8.3041 -11.4258 -1.65627 -7.419e-06 -18.3567 
134.3 82.401 16.64 148.652 -85.5725 -122.705 0 -0 0 -14.4839 0.216805 -12.1047 26.6402 -9.05331 -6.38445e-06 32.1429 14.7919 17.4103 -1.09535e-05 87.1582 -1.1202e-05 0.110302 8.97547 0.00870016 -25.5075 17.6034 3.80865e-05 -38.0779 0.226912 -30.412 0 -34.8705 0 18.9585 1.90403 0.317909 18.9755 -3.89479 -13.0826 -5.57815 -10.8426 -13.3248 -0 -0 52.0643 1.2133e-05 -9.65507 25.7189 -4.22221 2.39061e-05 -51.5682 -6.5279 -1.95249 -42.4403 -0 -0 41.0146 -2.44041e-05 8.53738 -11.5208 -1.71735 4.49061e-06 -18.0679 
133.18 82.65 16.736 149.62 -85.7532 -123.739 0 -0 0 -13.9968 0.0816453 -12.2516 26.7215 -9.16612 -3.89782e-05 32.2026 14.1484 17.0654 -9.5706e-06 86.4327 -9.6467e-06 0.1363 8.89922 0.0106 -25.7718 17.4165 -5.09787e-05 -39.1254 -0.504059 -28.8228 0 -35.0593 0 18.7579 2.10078 0.346988 19.3738 -4.12747 -12.6086 -5.38106 -10.3831 -14.2021 -0 -0 52.9603 -2.27348e-05 -10.7568 23.569 -4.34411 -1.01941e-05 -49.4035 -6.37047 -2.15867 -41.1086 -0 -0 40.0334 -3.97359e-05 8.70887 -11.5704 -1.75971 -1.18452e-05 -17.9016 
132.07 82.911 16.82 150.969 -85.9573 -125.152 0 -0 0 -13.4489 -0.0642576 -12.3918 26.8016 -9.28539 -1.47209e-05 32.2832 13.4797 16.6181 -2.96347e-06 85.7221 -2.74989e-06 0.1112 8.82116 0.00859999 -25.995 17.2352 -0.000129263 -40.2281 -1.23503 -27.0795 0 -35.3502 0 18.4776 2.22913 0.362598 19.7479 -4.3442 -12.1396 -5.14309 -9.89498 -15.0854 -0 -0 53.7107 4.78141e-05 -11.5987 21.521 -4.30599 -7.39803e-05 -47.4166 -6.19646 -2.2917 -39.7487 -0 -0 38.9608 -1.44473e-05 8.80162 -11.5934 -1.78219 8.69738e-06 -17.8832 
130.96 83.183 16.892 152.686 -86.1953 -126.926 0 -0 0 -12.8438 -0.231455 -12.5223 26.8772 -9.41455 -2.23808e-05 32.391 12.8029 16.0781 -0 85.0354 -0 0.0469995 8.73544 0.00359994 -26.2009 17.039 3.04145e-05 -41.3338 -1.92404 -25.1759 0 -35.7764 0 18.1289 2.30446 0.367687 20.0863 -4.5397 -11.6767 -4.8728 -9.40042 -15.9746 -0 -0 54.3184 -7.06582e-05 -12.1883 19.6239 -4.14885 -1.05298e-05 -45.4868 -6.01083 -2.35485 -38.3577 -0 -0 37.7989 2.93722e-05 8.81331 -11.5831 -1.78317 1.13932e-05 -18.0332 
